<svg xmlns="http://www.w3.org/2000/svg" viewBox="0 0 298.12 237.39"><defs><style>.cls-1{fill:none;stroke:#fff;stroke-linecap:round;stroke-linejoin:round;stroke-width:8px;}</style></defs><title>Asset 1</title><g id="Layer_2" data-name="Layer 2"><g id="Layer_1-2" data-name="Layer 1"><path class="cls-1" d="M211.55,129.79c-8.53,37.11-39.89,68.07-41.28,69.46-2,1.79-3.77,3.58-5.56,5.16-10.12,9.73-18.06,17.47-31.75,22.83a214,214,0,0,0,42.67,6.15c44.26,0,75.42-12.5,92.88-37.31,32.95-47,5.56-123.25,5.16-124a4.44,4.44,0,0,1,.4-4.16,5.23,5.23,0,0,1,3.57-2.19l16.48-1.39c-18.07-8.13-20.45-18.45-20.65-19.84C269.9,21.82,251.84,9.71,236.36,5.74c-17.86-4.56-35.13,0-44.06,11.71A210.3,210.3,0,0,0,172.65,52h0c-12.7,27.19-32.94,53.58-54.78,77C107.16,140.51,96,151.22,85.32,161,52.18,190.92,9.16,221.48,4,224.86"/><path class="cls-1" d="M4,224.86c72.44,2.18,109.39.19,109.39.19"/><path class="cls-1" d="M235,50.5a7.65,7.65,0,1,1,7.65-7.64A7.39,7.39,0,0,1,235,50.5Z"/></g></g></svg>