<svg xmlns="http://www.w3.org/2000/svg" viewBox="0 0 272.41 272.41"><defs><style>.cls-1{fill:none;stroke:#fff;stroke-linecap:round;stroke-linejoin:round;stroke-width:8px;}</style></defs><title>Asset 8</title><g id="Layer_2" data-name="Layer 2"><g id="Layer_1-2" data-name="Layer 1"><polyline class="cls-1" points="46.58 4 4 4 4 268.41 89.15 268.41 89.15 183.26 46.58 183.26"/><polyline class="cls-1" points="89.15 183.26 138.44 183.26 138.44 89.15 91.39 89.15"/><line class="cls-1" x1="4" y1="133.96" x2="91.39" y2="133.96"/><line class="cls-1" x1="4" y1="223.59" x2="46.58" y2="223.59"/><polyline class="cls-1" points="4 93.63 48.81 93.63 48.81 46.58"/><polyline class="cls-1" points="91.39 4 178.78 4 178.78 44.34 91.39 44.34"/><polyline class="cls-1" points="178.78 4 223.59 4 223.59 46.58"/><polyline class="cls-1" points="223.59 4 268.41 4 268.41 89.15 178.78 89.15 178.78 138.44 225.83 138.44"/><polyline class="cls-1" points="268.41 89.15 268.41 178.78 181.02 178.78"/><line class="cls-1" x1="223.59" y1="178.78" x2="223.59" y2="225.83"/><polyline class="cls-1" points="268.41 178.78 268.41 268.41 225.83 268.41"/><polyline class="cls-1" points="89.15 268.41 178.78 268.41 178.78 228.07 136.2 228.07"/></g></g></svg>