<svg xmlns="http://www.w3.org/2000/svg" viewBox="0 0 250.77 251.28"><defs><style>.cls-1{fill:#fff;fill-rule:evenodd;}</style></defs><title>Asset 4</title><g id="Layer_2" data-name="Layer 2"><g id="Layer_1-2" data-name="Layer 1"><path class="cls-1" d="M8.06,125.64C8.06,60.7,60.59,8,125.39,8S242.73,60.7,242.73,125.64s-52.53,117.6-117.34,117.6S8.06,190.6,8.06,125.64Zm242.71,0C250.77,56.25,194.65,0,125.39,0S0,56.25,0,125.64,56.14,251.28,125.39,251.28,250.77,195,250.77,125.64Z"/><path class="cls-1" d="M135.75,219.45c-46.76,0-84.62-37.07-84.62-82.77,0-36.08,29.93-65.39,66.89-65.39,29.13,0,52.71,23.08,52.71,51.52,0,22.29-18.51,40.41-41.36,40.41-17.86,0-32.29-14.14-32.29-31.53,0-13.46,11.19-24.41,25-24.41A19,19,0,0,1,141.33,126a14.38,14.38,0,0,1-14.57,14.17,10.69,10.69,0,0,1-10.85-10.54,4,4,0,0,0-8,0,18.74,18.74,0,0,0,18.89,18.59A22.42,22.42,0,0,0,149.37,126,27,27,0,0,0,122.1,99.24C103.85,99.24,89,113.75,89,131.69c0,21.87,18.07,39.57,40.33,39.57,27.27,0,49.4-21.68,49.4-48.45,0-32.92-27.21-59.56-60.75-59.56-41.37,0-74.93,32.86-74.93,73.43,0,50.18,41.5,90.82,92.66,90.82,63.39,0,114.83-50.36,114.83-112.51a4,4,0,0,0-8,0C242.54,172.66,194.75,219.45,135.75,219.45Z"/></g></g></svg>