<svg xmlns="http://www.w3.org/2000/svg" viewBox="0 0 291.85 295.9"><defs><style>.cls-1{fill:none;stroke:#fff;stroke-linecap:round;stroke-linejoin:round;stroke-width:8px;}</style></defs><title>Asset 11</title><g id="Layer_2" data-name="Layer 2"><g id="Layer_1-2" data-name="Layer 1"><path class="cls-1" d="M147.58,106.74a41.5,41.5,0,0,0-20.69,5.68,39.38,39.38,0,0,0-19.13,25.35c-5.69,22.25,7.76,45,29.48,50.7,22.24,5.69,45-7.76,50.69-29.47,5.69-22.25-7.75-45-29.47-50.7A39.25,39.25,0,0,0,147.58,106.74ZM134.1,291.9h-1L88.6,280.53A4.73,4.73,0,0,1,85,274.85l7.76-47.58L84,220l-40.9,19.64c-2.59,1-5.17.51-6.73-2.07L13.6,198.28c-1.57-2.08-.51-5.17,1.56-6.74l37.77-26.88-1-9.33L7.43,139.81c-2.59-1-4.15-3.6-3.1-6.19l11.35-44a4.72,4.72,0,0,1,5.68-3.6l45.53,8.27,5.69-11.38L54,43.64c-1-2.59-.51-5.18,2.08-6.74L95.34,13.63c2.07-1.57,5.17-.52,6.73,1.56L130,53l10.35-1.56,15.52-44c1-2.59,3.6-4.15,6.19-3.1L205.5,16.21a5.56,5.56,0,0,1,3.61,6.2l-8.27,45.53,7.76,6.73,40.87-20.18c2.59-1,5.17-.51,6.74,2.08l23.28,39.3c1.55,2.08.51,5.18-1.57,6.74l-38.29,25.87,1,10.34,44,16a5.27,5.27,0,0,1,3.1,6.2l-11.38,44.48a4.73,4.73,0,0,1-5.68,3.61l-45.53-8.27L220,208.12l19.66,42.4a5.69,5.69,0,0,1-2.07,6.74l-39.31,23.27c-1,.51-2.58,1-3.6.51-1.57-.51-2.59-1-3.1-2.58l-22.26-37.78-12.93,3.11-16.54,45.52A8.3,8.3,0,0,1,134.1,291.9Z"/></g></g></svg>