<?xml version="1.0" encoding="utf-8"?>
<!-- Generator: Adobe Illustrator 22.1.0, SVG Export Plug-In . SVG Version: 6.00 Build 0)  -->
<svg version="1.1" id="Layer_1" xmlns="http://www.w3.org/2000/svg" xmlns:xlink="http://www.w3.org/1999/xlink" x="0px" y="0px"
	 viewBox="0 0 467.6 60.5" style="enable-background:new 0 0 467.6 60.5;" xml:space="preserve">
<style type="text/css">
	.st0{fill:#D6B064;}
</style>
<g>
	<path class="st0" d="M12.5,60.5c5.6,0,10.3-0.6,13.6-1.7c3.3-1,6.5-3,9.8-5.8c6.2-5.5,9.3-12.5,9.3-21.4c0-8.8-2.9-15.8-8.9-21.3
		c-2.7-2.5-5.9-4.3-9.8-5.5c-3.2-1.1-7.5-1.3-13.8-1.3H0v57H12.5z M8,11.5v-1h5.1c7.9,0,13.6,1.7,17.4,5.3c4.4,4.1,6.6,9.3,6.6,15.8
		c0,6.5-2.2,11.9-6.7,16c-2.3,2.1-4.8,3.6-7.3,4.5c-2.8,0.9-5.5,1.4-8.3,1.5c-0.6,0-1.1,0.1-1.7,0.1H8V11.5z"/>
	<rect x="79" y="3.5" class="st0" width="8" height="57"/>
	<polygon class="st0" points="236,60.5 236,53.5 219,53.5 219,3.5 211,3.5 211,60.5 	"/>
	<polygon class="st0" points="302,60.5 302,53.5 279,53.5 279,38.5 279,37.5 302,37.5 302,30.5 279,30.5 279,11.5 279,10.5 
		302,10.5 302,3.5 271,3.5 271,60.5 	"/>
	<polygon class="st0" points="337.2,60.5 346.1,60.5 359.7,37.6 373,60.5 381.7,60.5 364.3,30.7 380.8,3.5 371.9,3.5 359.8,23.9 
		348.4,3.5 339.5,3.5 355.3,30.7 	"/>
	<polygon class="st0" points="122.2,60.5 130.4,60.5 150.2,17.4 168.9,60.5 177.6,60.5 150.4,0 	"/>
	<polygon class="st0" points="412.2,60.5 420.4,60.5 440.2,17.4 458.9,60.5 467.6,60.5 440.4,0 	"/>
</g>
</svg>
