<svg xmlns="http://www.w3.org/2000/svg" viewBox="0 0 357.95 161.69"><defs><style>.cls-1{fill:none;stroke:#fff;stroke-linecap:round;stroke-linejoin:round;stroke-width:8px;}</style></defs><title>Asset 10</title><g id="Layer_2" data-name="Layer 2"><g id="Layer_1-2" data-name="Layer 1"><path class="cls-1" d="M286.49,157.69a42.14,42.14,0,0,0,0-84.27H46.13a42.14,42.14,0,0,0,0,84.27Z"/><polyline class="cls-1" points="59.37 73.42 59.37 24.92 188.28 24.92 239.94 38.04 239.94 49.17 239.94 73.42"/><polyline class="cls-1" points="353.95 60.98 353.95 37.38 324.01 49.17 239.94 49.17"/><path class="cls-1" d="M162.84,24.92a10.46,10.46,0,1,0,0-20.92h-38a10.46,10.46,0,1,0,0,20.92Z"/><circle class="cls-1" cx="53.96" cy="115.55" r="11.67"/><circle class="cls-1" cx="98.9" cy="115.55" r="11.67"/><circle class="cls-1" cx="143.84" cy="115.55" r="11.67"/><circle class="cls-1" cx="188.78" cy="115.55" r="11.67"/><circle class="cls-1" cx="233.72" cy="115.55" r="11.67"/><circle class="cls-1" cx="278.66" cy="115.55" r="11.67"/><line class="cls-1" x1="353.95" y1="60.98" x2="324.01" y2="49.19"/></g></g></svg>